/* XPM */
static char *ecc4a75c0ded408cbcbff77f1ffd9116a17uI8ci4kMNsy6i[] = {
/* columns rows colors chars-per-pixel */
"70 70 224 2 ",
"   c None",
".  c #110C0F",
"X  c #140E11",
"o  c #171013",
"O  c #1B1315",
"+  c #1D171A",
"@  c #0F0B0E",
"#  c #241718",
"$  c #241A1B",
"%  c #2A1C1C",
"&  c #221617",
"*  c #391F1F",
"=  c #341C1C",
"-  c #33201F",
";  c #2D201E",
":  c #281E20",
">  c #2B2325",
",  c #2D2628",
"<  c #2A2325",
"1  c #332222",
"2  c #3B2424",
"3  c #3D2B26",
"4  c #342B2C",
"5  c #3D2929",
"6  c #392826",
"7  c #3C3434",
"8  c #3B3334",
"9  c #422C2B",
"0  c #472826",
"q  c #592D2A",
"w  c #4C332D",
"e  c #44312B",
"r  c #51352F",
"t  c #472F30",
"y  c #443B3B",
"u  c #483635",
"i  c #513633",
"p  c #523A33",
"a  c #5D3C36",
"s  c #543C3A",
"d  c #5B3D3A",
"f  c #5E3531",
"g  c #673833",
"h  c #783C37",
"j  c #62322F",
"k  c #58433D",
"l  c #63423A",
"z  c #69443C",
"x  c #6A4A3E",
"c  c #67473B",
"v  c #71483F",
"b  c #77423D",
"n  c #4D4443",
"m  c #564947",
"M  c #5E5452",
"N  c #5B514F",
"B  c #664A43",
"V  c #744C42",
"C  c #794E43",
"Z  c #774943",
"A  c #6B544C",
"S  c #68514C",
"D  c #755143",
"F  c #7C5346",
"G  c #7A594B",
"H  c #79554B",
"J  c #655855",
"K  c #7A5D54",
"L  c #6A615E",
"P  c #766058",
"I  c #6E6361",
"U  c #736A66",
"Y  c #7A6E6A",
"T  c #766763",
"R  c #7C716C",
"E  c #7E7778",
"W  c #843F39",
"Q  c #89423C",
"!  c #90453E",
"~  c #874C46",
"^  c #954942",
"/  c #9C4B43",
"(  c #835549",
")  c #845B4A",
"_  c #8B5D4E",
"`  c #845248",
"'  c #97564A",
"]  c #8A5B51",
"[  c #995C54",
"{  c #A45147",
"}  c #AD5249",
"|  c #A4524A",
" . c #B4564C",
".. c #B9584D",
"X. c #AA5A51",
"o. c #AA5249",
"O. c #8B624F",
"+. c #8D6553",
"@. c #856559",
"#. c #926551",
"$. c #956954",
"%. c #9B6C56",
"&. c #9E6F58",
"*. c #946E5A",
"=. c #9D715A",
"-. c #B26257",
";. c #A4735A",
":. c #AC7A5F",
">. c #A9755D",
",. c #AE6258",
"<. c #876C62",
"1. c #887268",
"2. c #9A7768",
"3. c #857A74",
"4. c #8C7C75",
"5. c #857774",
"6. c #957C73",
"7. c #916C61",
"8. c #A47A63",
"9. c #A97C66",
"0. c #B47F63",
"q. c #BA7268",
"w. c #B16D63",
"e. c #C35D51",
"r. c #CA5F53",
"t. c #C15A4F",
"y. c #C86358",
"u. c #D56659",
"i. c #DB675A",
"p. c #DE685B",
"a. c #D46457",
"s. c #E36A5D",
"d. c #E96C5E",
"f. c #CC776B",
"g. c #EC6E60",
"h. c #E97566",
"j. c #F47263",
"k. c #F47B6B",
"l. c #E17F71",
"z. c #8D827A",
"x. c #978378",
"c. c #B58165",
"v. c #B8856A",
"b. c #A58375",
"n. c #A98B7B",
"m. c #B98674",
"M. c #B5927C",
"N. c #C59478",
"B. c #D19A7B",
"V. c #CC8A74",
"C. c #E78677",
"Z. c #F28272",
"A. c #F48979",
"S. c #8A8585",
"D. c #958984",
"F. c #9C8F89",
"G. c #958883",
"H. c #9E928C",
"J. c #9B9085",
"K. c #9B9796",
"L. c #A18D83",
"P. c #A3958C",
"I. c #A59387",
"U. c #B89A87",
"Y. c #AA9C95",
"T. c #A69B94",
"R. c #B09F96",
"E. c #AEA19A",
"W. c #B2A49C",
"Q. c #B6A79A",
"!. c #B7A9A1",
"~. c #BBACA4",
"^. c #B7ABA6",
"/. c #BDB2AB",
"(. c #BEB2A5",
"). c #BBB6B4",
"_. c #AAA8A8",
"`. c #CD9B85",
"'. c #D99581",
"]. c #CA9589",
"[. c #E79686",
"{. c #F29D8C",
"}. c #F19484",
"|. c #E68F80",
" X c #D3A588",
".X c #C6AC99",
"XX c #D9B399",
"oX c #CCAE99",
"OX c #EFA796",
"+X c #F2A493",
"@X c #C3B5AD",
"#X c #C6B9AD",
"$X c #CBB7A7",
"%X c #CBBCB2",
"&X c #C2BBB2",
"*X c #D1BCA9",
"=X c #E3BBA0",
"-X c #CEC1B4",
";X c #CBC4BB",
":X c #D3C6BA",
">X c #D5C9BB",
",X c #DACDBD",
"<X c #D0C1B6",
"1X c #D4C2AF",
"2X c #EDCFB6",
"3X c #D8CEC2",
"4X c #DDD2C3",
"5X c #DDD4CA",
"6X c #D4D0CE",
"7X c #E3D6C5",
"8X c #E5D8C7",
"9X c #E6DACA",
"0X c #EADECC",
"qX c #E2D7CA",
"wX c #E8DFD1",
"eX c #F0DECA",
"rX c #EEE1CE",
"tX c #F0E2CE",
"yX c #EEE2D1",
"uX c #EDE7DF",
"iX c #F0E4D3",
"pX c #F0E8DC",
"aX c #F5EDE3",
"sX c #F3F2F1",
/* pixels */
"                                                                                                                                            ",
"                                                                                                                                            ",
"                                                                                                                                            ",
"                                                                                                                                            ",
"                                                                                                                                            ",
"                                                                        7.                                                                  ",
"                                                                      l v.M.                                                                ",
"                                                                      1 +.8.                                                                ",
"                                                                      X A J                                                                 ",
"                                                                      o G P.                                                                ",
"                  8 K.                                            o , n <.x.G.L                                                             ",
"                  < ^.).                                        y 5.~.4X0X9X7X-XP.R                                                         ",
"                  J K.sXS.                                  < I W.:X0XrXrXrXrXrXrX7X(.3.                                                    ",
"                  4.E.aX/.                                7 G.@X<X9XrX0X0XrXrXrXrXrX0X-XP.                                                  ",
"                  R @XqX3X                              y R.@X@X,X,X>X,X7X0X0X9X4X7X8X9X0XE.                                                ",
"                    W.>X0XK.                          y Y.!.W.#X7X9X0X0XrXrXyXyXwX5X:X>X7X,XJ.                                              ",
"                    D.%X0X&X                        , H.!.W.@X8XrXrXrXrXrXrXrXrXrXrXyX9X@X4X,X                                              ",
"                    Y @X7XqX                        U @XW.@X%X9XrXrXrXrXrXrXrXrXrXrXrXiX4X7XtXQ.                                            ",
"                      W.,XyX^.                    4 E.@XW.@X#X7X0XrXrXrXrXrXrXrXrXrXrXrX9X,XrX7X5.                                          ",
"                      F.%X0X3X                    J @XE.W.@X@X%X4XrXrXrXrXrXrXrXrXrXrXrX0X>XrXrXW.                                          ",
"                      5.@X7XwX                  + G.@XW.!.@X@X@X>X8X0XrXrXrXrXrXrXrXrXrXrX>X0XrX>X                                          ",
"                        ~.,XiX).                , W.#X!.!.@X@X@X!.R.Q..X.X.X.X$X*X1X,X7X8X-X0XrX0Xz.                                        ",
"                        Y.-XyX5X                s P.L.6.2.b.J.x.8.>.9.0.c.c.c.8.M.B.`. XoX X2XtXeX(.                                        ",
"                        D.%X8XuXK.            F %.&.>.0.V.B.v.=.;.=.%.#.O.O.G 6 e %.:.v.N.N.U.oX=X2Xz.                                      ",
"                        R @X,XiX).            O.;.$.%.$.D l w 3 - $ & O o o o X X & % 3 r c G B y 1.x.                                      ",
"                          W.-XrX4X            3 3 a 9 > X X X h h X X X X X X X # Q * X . $ 4.4.y O 4                                       ",
"                          H.%X8X0XK.            < U 5.m X X O e. .o X X X X X X 0 d.h X X , @XiX%Xy                                         ",
"                          3.@X,XyX/.              !.@XL X X o / ^ X X X X X X X - s.g X X , #XiX,X                                          ",
"                            ~.<XrX4X              !.@XJ X X X # # X X X X X X X O j % X X < @XtX,X                                          ",
"                            Y.%X8X0XT.            ~./.M . X X X X X X X X X X X X X X X X $ W.rX8X3.                                        ",
"                            G.@X,XrX&X          I @XW.m = % O X X X X X X X X X X X X X O o 5.8XrXW.                                        ",
"                            L ~.%X0X3X          G.~.R | s.a.e.{ Q j 9 , + o X X o 2 g /  .= , Y.8X,XL                                       ",
"                              H.%X7X0XK.        U m 0 p.j.j.j.j.j.j.h.l.m.b.6.@.o.s.j.j. .* q t U z.                                        ",
"                              L /.#XyX).            = e.j.j.j.j.h...r.j.j.k.A.Z.j.i.} h h e.a.q g W                                         ",
"                              , F.W.9X5X            . * } g.j.j.h.9.A y.d.p.e.! q * q } g.i.{ e.} Z y     A n.n.                            ",
"                                m H.#XpXE.        J 7 o q  .j.j.j.k.|.].2.s $ X 2 / d.j.i.u.p.~ 1.;X3XS K v.N.n.U                           ",
"                                + m D.aX;X      7.P.!.Y 1 ! g.j.j.j.j.k.}. Xb./ p.j.g.a.d.a.g z.0X%X1.$.c.0.0.*.x.                          ",
"                                X o S.sX6X5.m.f.,.x.%XT.7 % h d.j.j.j.j.j.j.k.j.j.s.y.d.u.0 U %XQ.H #.0.0.0.0.0.`.x.                        ",
"                                  + I 4.].l.y.2.d 1.@X!.n G m b d.j.Z.Z.j.j.j.p...r.g.s.q , T.F.A %.0.0.0.0.0.0.v.oX                        ",
"                                  0 Q r.r.Q d J z v D z.P 2.:XJ.~ p.k.}.{.Z.h.^  .j.d.h 3 N F.A #.0.0.0.0.0.0.0.0. XI.                      ",
"                                } p. .' f z _ v V C v p k I.-X,XT.) r.j.Z.{.OXC.j.g.[ 5.B y Y D %.8.0.0.0.0.0.0.0.V.XX                      ",
"                          j / } ^ h 1 y d #.$.x ( C F a k Y.!.%X7X-X4.X.s.j.k.j.h.w.P.Y.1.; 1 _ ) O.0.0.0.0.0.0.0.c.XXP.                    ",
"                          ^ { =     t a z F l i V F C i u G.Y.:X9X7X,X!.6.q.l.l.b.#X%X@X!.m % O.0.0.0.0.0.0.0.0.;.:.B.$X                    ",
"                                    i ( l a 7.k a B s 6 $ n T.T.Q.E.P.W.E.R B J 4.P.F.F.G.B 6 ) 0.0.0.0.0.0.0.9.=.0.c.XXz.                  ",
"                                      d F ( V 1 i t 9 : < : s m s 5 M <.@.4.m i 9 G U.4 c %.6 D 0.0.0.0.0.0.#.+.>.0.0. XU.                  ",
"                                        9 t 7 $ 5 $ & E S.2 i K l s 5.D _ <.1.C d *.=.+.;.) $ x 0.0.0.0.;.$.F D :.0.0.c.7.                  ",
"                                          n L B u X X E E 9 i z d i Y K ( 1.J l t % % m.v.p o l 9.0.0.&.;.0.0.;.0.0.0.:.c                   ",
"                                          h b y.k $ 5 4 7 u s k N J n J J S 2 % O 4 $ s 2.I < r >.0.0.0.0.0.0.0.0.0.0.c.+.                  ",
"                                          r.j.y.2 t 6 4 P.W.(.%X:X>XA ) g Q i./ x <.D.y n L < 9 &.c.0.0.0.0.0.0.0.0.0.9.                    ",
"                                          g { h   o < 3.-XrXrX0XrXQ.+.>.u.} p.s._ =.T.Y : o 2 w #.c.0.0.0.0.0.0.0.0.0._                     ",
"                                                  < 3.@X>X8X9X0X4X<.;.' d.g.s.g.{ #.x.W.z.< w e F 0.0.0.0.0.0.0.0.0.%.i                     ",
"                                                  S ~.-X8X9X8X4Xn.>.%.{ s.j.g.u.i.C =.n.~.H.T 1 l :.0.0.0.0.0.0.0.>.V                       ",
"                                                k F.@X8X8X7X9XL.8.9.-.u.u.j.j.Z.j. .l +.I./.!.n 9 ) @.=.0.0.0.0.>._ w                       ",
"                                              w K @X>X8X0X9XI.8.n.] C.'.y.k.k.}.A.Z.-.D m.T.@XD.: a x %.c.0.0.&._ l                         ",
"                                                @.Y.9X7X8XQ.2.U.B V.+X|.w.+XA.}.{.{.f.9 %.b.W.F.8 O i _ %.%.#.( V 1                         ",
"                                                F 2.~.8X%X9..Xn ~ +X+X[.[ [.{.}.{.{.C.* e G 6.!.H.: % a ( ( v a 3                           ",
"                                                  ) 8.M.9.U.J @ Z +X+X{.~ X.{.{.{.{.-.O X w x 1.L.s O 2 ( C 2 1                             ",
"                                                    k ) #.A 5 > 2 V.+XC.h 0 X.|.+X'.f 2 9 3 x $.O.c O   g v 9                               ",
"                                                  e 5 O o o $ 1 O Z f.h       h q.b - w a i 1 9 %                                           ",
"                                                  ) $.i $ % 5 9 2 #               O o 6 d C V c D V                                         ",
"                                                  x %.;.%.$.#.( l                 6 l D #.&.;.;.;.x                                         ",
"                                              a C C C ( ( D V z 1                   a F #.#.) V V H T                                       ",
"                                  X X     o w F ( ( V z a r g F $ X X X X X X X X X i ( C l V F ( ) @.T                                     ",
"                    X X X X X X X X X X X o w a l z z l l a 9 w o X X X X X X X X X O 9 - 1 a l x D G @.7 X X                               ",
"                                            o O $ % % % % $ o X X X X X X X X X X X X X X X O $ % % $ & o                                   ",
"                                                                                                                                            ",
"                                                                                                                                            ",
"                                                                                                                                            ",
"                                                                                                                                            ",
"                                                                                                                                            "
};
