/* XPM */
static char *c09dbada166a4cc996da469765c098aeP1KFinnoQhSlQXND[] = {
/* columns rows colors chars-per-pixel */
"70 70 173 2 ",
"   c #00241F",
".  c #0A271F",
"X  c #0D291F",
"o  c #12271E",
"O  c #13281F",
"+  c #1E2C1F",
"@  c #242D1E",
"#  c #2C2F1E",
"$  c #352F1C",
"%  c #26301F",
"&  c #2C321F",
"*  c #35321E",
"=  c #3D341D",
"-  c #3E381F",
";  c #012620",
":  c #012B22",
">  c #0B2E22",
",  c #132E21",
"<  c #1C2F20",
"1  c #013325",
"2  c #0B3324",
"3  c #023A27",
"4  c #0B3A26",
"5  c #013628",
"6  c #013D29",
"7  c #0B3C28",
"8  c #133423",
"9  c #1C3322",
"0  c #133A26",
"q  c #1A3A25",
"w  c #143C28",
"e  c #193F29",
"r  c #223321",
"t  c #2B3620",
"y  c #243D25",
"u  c #293C25",
"i  c #383C23",
"p  c #41351D",
"a  c #44391E",
"s  c #493A1D",
"d  c #453C21",
"f  c #4A3F21",
"g  c #01432B",
"h  c #0B432A",
"j  c #01492E",
"k  c #0C4B2E",
"l  c #15442B",
"z  c #1C442B",
"x  c #134B2E",
"c  c #1C4C2E",
"v  c #10502E",
"b  c #014D31",
"n  c #0A4E30",
"m  c #134C30",
"M  c #1A4D30",
"N  c #015334",
"B  c #0B5332",
"V  c #015837",
"C  c #0D5B37",
"Z  c #065B38",
"A  c #0A5E39",
"S  c #145432",
"D  c #1B5532",
"F  c #135A35",
"G  c #1D5B35",
"H  c #115F38",
"J  c #274027",
"K  c #20472D",
"L  c #2E4428",
"P  c #234B2E",
"I  c #294E2F",
"U  c #38492A",
"Y  c #28502F",
"T  c #32512F",
"R  c #234C31",
"E  c #284E30",
"W  c #235231",
"Q  c #2C5532",
"!  c #245C35",
"~  c #2B5B34",
"^  c #315632",
"/  c #3A5731",
"(  c #335B34",
")  c #1B6037",
"_  c #15633A",
"`  c #1A6339",
"'  c #1E693D",
"]  c #276136",
"[  c #2B6237",
"{  c #24643A",
"}  c #2C6639",
"|  c #236B3D",
" . c #2C6B3B",
".. c #336337",
"X. c #3A6237",
"o. c #336738",
"O. c #3C6639",
"+. c #346B3A",
"@. c #3A6C3A",
"#. c #2A703F",
"$. c #35713D",
"%. c #3C723D",
"&. c #4E4222",
"*. c #404628",
"=. c #424828",
"-. c #494D2A",
";. c #534725",
":. c #554A26",
">. c #574C28",
",. c #584C28",
"<. c #40562E",
"1. c #55542B",
"2. c #57592E",
"3. c #595A2E",
"4. c #485D32",
"5. c #545E30",
"6. c #5A5D30",
"7. c #4B6234",
"8. c #406739",
"9. c #426B3B",
"0. c #496D39",
"q. c #596533",
"w. c #586A35",
"e. c #516E38",
"r. c #44733D",
"t. c #4B733D",
"y. c #46783F",
"u. c #4A783F",
"i. c #53723B",
"p. c #5F7138",
"a. c #5C7A3F",
"s. c #627E3F",
"d. c #2A6D42",
"f. c #367640",
"g. c #3B7641",
"h. c #3D7A42",
"j. c #467542",
"k. c #4E7740",
"l. c #447B41",
"z. c #4C7C42",
"x. c #537C41",
"c. c #587F41",
"v. c #507F49",
"b. c #627E40",
"n. c #4E8244",
"m. c #548344",
"M. c #5A8544",
"N. c #578847",
"B. c #5E8A46",
"V. c #55884B",
"C. c #5F8C49",
"Z. c #638342",
"A. c #648D47",
"S. c #688E47",
"D. c #658F48",
"F. c #688F48",
"G. c #669048",
"H. c #679048",
"J. c #669049",
"K. c #689148",
"L. c #68924A",
"P. c #6C934A",
"I. c #6B944B",
"U. c #6C944A",
"Y. c #6A934C",
"T. c #6B944D",
"R. c #6C944F",
"E. c #6D984E",
"W. c #71964C",
"Q. c #6E9651",
"!. c #709753",
"~. c #729A54",
"^. c #759C59",
/* pixels */
"G.G.G.G.G.G.L.I.I.L.G.G.L.G.D.D.G.L.D.D.G.G.G.G.G.L.L.G.L.Y.L.G.A.G.G.G.L.I.I.L.L.L.L.L.G.A.D.D.D.D.D.G.G.G.G.P.P.L.G.G.L.Y.G.D.D.D.G.L.I.I.",
"G.G.G.G.G.G.G.G.L.L.G.L.L.G.G.L.L.L.L.D.G.D.G.G.G.D.G.L.L.Q.R.L.L.L.G.G.G.G.L.L.G.G.L.L.G.G.G.L.G.G.G.G.D.G.L.U.L.L.L.L.R.!.R.P.L.G.L.G.G.G.",
"R.Y.L.G.G.L.G.G.L.L.L.L.L.L.L.G.L.G.G.G.G.G.G.G.G.G.G.L.L.Y.T.R.L.L.L.G.L.G.L.I.L.G.L.L.L.G.G.G.G.G.G.G.A.G.L.L.L.L.L.L.L.T.R.U.L.L.L.L.G.G.",
"~.Q.L.L.L.L.L.L.L.L.L.L.I.L.G.G.G.G.G.G.G.G.G.G.G.G.G.L.L.G.R.Y.Z.M.L.L.G.G.L.L.L.G.L.U.I.G.G.G.L.G.D.A.A.G.G.G.G.L.L.G.G.L.T.I.L.L.L.L.G.G.",
"!.R.I.U.U.L.L.L.L.L.G.G.L.L.G.G.G.L.L.G.G.L.L.G.G.G.G.G.L.I.R.M.X.X.C.L.G.D.G.G.G.G.G.L.L.G.G.L.L.G.G.G.G.L.L.G.G.G.G.L.L.L.T.L.L.L.G.G.D.A.",
"T.I.I.U.U.L.L.L.L.L.L.D.G.G.G.G.A.G.L.G.L.R.Y.L.G.G.G.G.G.D.x.Q 2 0 O.x.Z.D.G.G.D.D.G.G.G.G.L.I.L.L.L.L.T.Q.R.L.G.G.G.L.L.L.L.G.L.L.L.G.D.D.",
"^.!.R.I.I.I.L.L.L.L.L.G.D.D.D.L.D.G.G.L.L.R.T.U.L.L.L.D.M.9.P 2 : : 2 z 9.C.G.L.G.G.G.G.D.D.L.I.L.L.L.L.T.Q.R.U.L.L.L.L.G.G.L.L.G.L.L.L.L.G.",
"~.E.L.G.G.G.L.U.L.G.G.G.G.G.G.L.G.G.L.L.L.G.R.Q.Y.G.D.x.Q 0 > : 5 :   : z 8.C.G.G.G.G.G.G.G.Y.T.L.L.L.G.G.G.T.Y.L.L.L.L.L.L.U.U.L.I.U.L.G.G.",
"I.I.G.L.L.L.L.L.L.L.L.G.G.G.L.T.L.G.G.G.G.G.T.R.L.M.8.P 0 4 4 6 5 : : 2 ( x.A.L.L.G.G.G.G.I.Q.Q.L.G.G.G.G.G.L.L.L.I.L.L.I.L.L.L.L.L.U.U.G.A.",
"I.I.L.L.L.L.L.G.L.L.L.G.G.L.L.L.L.G.L.L.G.L.I.I.M.( w 2 6 g g g 6 6 5 2 ^ t.x.C.L.G.L.G.G.L.T.Y.L.G.L.L.L.L.L.I.I.I.L.L.L.L.L.L.L.L.I.U.G.A.",
"I.L.L.G.G.L.L.Y.L.L.L.G.A.A.D.D.G.G.L.L.L.L.D.x.Q 7 3 g b b b b b b 6 : 0 z X.M.I.G.D.A.A.D.D.A.G.L.L.G.G.L.T.T.I.I.L.L.L.I.L.L.I.L.I.L.D.A.",
"G.G.G.G.G.L.T.Q.L.G.G.D.Z.Z.A.A.L.L.L.L.G.A.j.W 4 6 b N V V V V b j 5 ;   > ^ m.A.A.Z.A.Z.Z.Z.Z.G.G.G.G.G.T.R.E.L.L.L.L.U.U.I.L.I.L.L.G.G.D.",
"A.A.G.L.G.G.Y.R.L.G.G.A.A.Z.D.F.L.L.G.G.G.n.G j j b V N N V N j 6 1 :   ; z ( O.t.C.Z.A.A.A.A.Z.G.G.G.G.L.L.I.I.G.G.G.L.U.U.L.L.L.L.L.L.G.G.",
"D.D.L.L.L.G.G.G.G.A.G.G.G.G.U.L.G.A.D.G.D.l._ N N b b N b b j 5 : ;     ; w e w Q M.A.D.G.L.L.A.D.G.G.L.L.L.L.L.G.G.L.L.L.L.L.L.L.L.L.L.G.D.",
"G.G.G.L.L.L.I.G.D.A.G.G.G.G.G.G.G.G.G.L.L.B.f.` h 5 3 6 1 1 : : :           : w 8.A.G.G.G.G.G.A.G.G.L.L.L.L.L.G.G.G.G.L.L.L.G.G.D.D.F.F.D.D.",
"R.T.L.G.L.L.I.L.D.A.D.D.G.G.D.G.G.G.G.G.G.m.} S g 3 1 : ; ; X , 2 1 : : ;   : z u.m.A.D.D.D.D.D.G.G.G.G.G.G.G.G.G.G.G.Y.!.Q.L.A.Z.D.D.A.D.D.",
"R.I.L.G.G.L.I.L.G.A.A.A.A.A.A.G.G.G.G.G.C.@.G k g g 3 : : : , % 9 1 1 5 5 5 5 h ! @.Z.L.D.A.A.D.G.D.G.G.G.D.G.G.L.L.G.L.Q.Q.L.D.D.G.G.D.A.D.",
"L.I.L.G.L.L.L.L.G.A.A.A.A.A.A.D.G.G.G.D.M.%.! k j j j 6 6 6 8 r 9 1 : 1 3 3 6 3 3 c 9.c.Z.D.A.D.G.G.G.G.D.A.D.L.L.L.L.G.L.L.L.G.G.G.L.L.G.A.",
"I.I.L.L.L.L.L.G.D.A.D.G.L.D.D.A.A.G.D.M.l.$.) B b b b b b g 3 0 4 1 ; : 1 3 6 3 5 3 l Q u.A.D.A.G.G.G.G.A.A.G.G.L.L.L.L.L.G.L.G.G.L.T.R.G.A.",
"L.L.L.G.G.L.I.Y.G.D.D.G.Y.G.G.D.A.A.C.z.+.` N N V N b b j 6 3 7 3 1 : : 5 6 6 6 3 3 1 2 ( M.G.D.D.D.G.G.G.G.L.G.G.G.L.L.L.L.L.G.G.I.R.R.L.A.",
"A.G.G.G.G.L.R.!.Y.G.G.L.Y.G.A.A.M.m.m.z.%.{ B j b j g 6 g g 7 0 8 : : 1 5 3 3 3 3 5 5 1 I x.D.D.A.D.D.D.L.R.R.L.L.G.G.L.T.T.L.G.G.G.G.G.D.A.",
"A.A.L.L.G.G.L.L.L.L.G.G.L.G.M.y.{ G ` F B B B B k g g g g g 6 h 4 :     ;   : : : : : : 2 ^ z.m.A.D.D.D.Y.Q.R.L.L.G.G.L.R.R.L.G.G.G.G.A.G.G.",
"A.A.L.L.D.G.L.L.G.G.G.L.L.A.M. .C N Z V V V N n j b N N b j j k 4 ;             : : 5 1 1 7 D %.A.D.G.D.L.T.T.L.L.L.L.L.L.L.G.D.D.D.D.L.P.L.",
"L.L.L.L.L.D.G.G.G.G.G.G.L.A.z.g.d.| _ Z Z N b S S B N N N b n l 8 .   ;       : 3 h D k x x ! z.Y.L.G.G.G.L.L.L.L.G.L.L.L.G.D.A.L.G.G.G.L.G.",
"R.T.L.L.L.G.A.A.A.G.G.G.G.C.%.} { { F b k B x l h g g 6 g 3 4 8 + O ; : : : : w ~ r.z.%.%.y.z.D.Q.L.L.L.L.L.G.G.L.L.G.L.L.L.G.G.L.L.G.G.A.A.",
"Y.L.G.G.G.G.D.D.D.L.L.G.G.A.y.} ! G G S x l l 4 1 5 1 : 5 : ; X + < > 1 1 1 3 W r.x.M.B.A.G.G.Y.Y.R.L.L.L.L.L.G.L.L.L.L.P.L.L.G.G.G.G.G.D.G.",
"G.A.G.G.L.G.G.G.L.Y.L.G.L.L.D.M.m.v.z.O.P 2 3 6 6 3 1 1 6 5 : 1 4 0 2 : : : 3 x ! ] o.z.C.G.G.D.Y.R.L.L.L.L.L.L.L.I.L.L.U.L.G.A.G.G.G.G.D.G.",
"G.G.L.P.L.G.G.G.L.T.L.G.G.G.G.G.G.A.x.Q 4 3 j j j j g b b g 3 6 g g 6 3 5 : 2 l ! ! ! o.x.A.L.G.L.L.L.I.U.L.L.L.L.L.L.L.I.U.L.A.L.L.L.G.G.G.",
"Y.L.G.L.L.G.G.G.G.G.G.G.L.L.G.Z.u.( z 2 6 b N V V V V V N 6 1 5 g g g g g 6 6 g k D o.m.C.G.L.L.I.I.I.I.L.L.L.L.L.L.L.L.I.I.G.A.G.L.G.G.G.D.",
"^.Q.L.G.G.G.A.Z.Z.A.A.L.D.M.O.Q l 7 5 3 j N V V V V V V j 2 ; 1 g g g g g g g g g g x o.z.C.G.L.R.E.I.L.L.L.L.U.I.L.I.I.L.L.G.A.G.G.G.G.A.Z.",
"Q.T.G.G.G.G.A.Z.A.A.L.P.A.9.x g j j j j b V V V V V V V j : ; 1 g j g g g g g g g 3 3 x ! y.A.L.T.R.L.G.G.L.U.U.I.L.L.I.L.L.G.G.G.G.G.G.D.Z.",
"R.T.G.G.A.A.D.D.L.L.L.L.A.%.B N V V V Z Z V b N N b b V b 2 , 2 g j j g g g g g g 3 6 g S %.C.L.L.L.G.G.G.L.L.U.L.L.I.L.L.L.G.G.G.A.A.D.D.A.",
"~.Q.L.A.G.G.G.G.L.L.G.G.A.m.| | ' ' | #.` j g g g 6 g N b 2 9 0 g b b g 6 j j g h h g l } m.D.L.G.G.G.G.G.L.L.L.G.G.G.G.G.L.D.D.A.G.G.D.A.G.",
"^.!.L.A.D.G.D.A.A.A.G.G.G.A.m.M.m.m.m.z.! 3 1 : : : 5 g 6 8 r 9 7 g N j j b b j k k h ~ z.N.N.B.n.n.C.G.G.L.T.R.L.D.Z.A.D.S.A.D.A.G.G.G.A.D.",
"I.G.G.A.D.D.A.A.A.A.G.G.G.G.G.G.A.m.O.c 2 ;       ; : 1 1 , @ 9 2 g j N N N N V V V N ) | | ' ' ` | n.D.G.L.Q.^.T.D.Z.D.D.D.A.D.D.D.D.D.D.D.",
"L.L.G.A.D.A.A.A.A.D.G.G.G.D.A.Z.r.P 2 > r u >   ; : : 5 1 ; O X ; 2 g j g g j b N V V V V V V V Z  .M.L.L.G.L.T.L.L.G.G.G.G.D.A.A.D.A.L.L.D.",
"I.L.G.G.A.A.A.A.A.A.G.G.G.Z.u.^ w > , L 7.0.l 1 5 6 6 3 :   . o + % r 2 : : 1 6 B V V V V V V V H l.A.L.L.G.G.L.L.L.G.G.L.R.Y.A.A.G.G.L.L.A.",
"R.T.G.A.D.G.Y.G.D.D.C.x.u.O.z 8 , y / 8.@. .Z b j b j 6 : ; O @ & & @ ; : : : 5 g j j j b N b b { M.G.L.L.L.L.G.L.G.G.G.I.R.Y.D.A.D.G.T.Q.Y.",
"R.L.G.G.G.G.Y.G.G.G.m.9.( P 2 8 q W } | H N V V N N b g 3 2 < 9 q q 8 1 5 1 : : 1 1 1 5 6 6 6 M @.D.L.G.G.L.I.L.L.G.G.G.I.L.G.D.G.G.G.R.!.Y.",
"G.G.G.L.G.G.L.G.G.G.M.9.( l h l x B B N b b V N N b j g g 4 2 4 g 6 6 6 6 5 :   ; ; ; : : : 2 R 9.C.G.L.L.L.T.R.L.G.G.G.G.A.A.D.G.G.G.P.W.L.",
"G.G.G.L.G.D.L.L.G.L.M.%.] k j j j j j j j b N b j g g g g g 3 3 6 3 3 3 5 : ;               ; w E X.x.M.Z.G.T.R.L.G.G.G.G.D.D.D.G.G.G.P.W.U.",
"G.G.G.G.G.D.L.L.D.A.y.D j b b j j j N N N N j g g g g g g g 7 0 2 : 2 8 : ;       ; ; ; ; ;   ; ; 2 z Q 9.M.I.I.L.L.L.L.G.D.D.D.G.D.D.L.P.L.",
"L.L.L.P.L.D.G.D.n.%.] S F Z V N N N V V N j g g g g g g g 0 & # O : 2 h j 5 :     > P z z e 0 0 z P w 2 Y x.L.L.L.G.G.L.L.G.G.G.L.L.G.L.L.G.",
"^.Q.L.L.L.L.L.G.z.! G +.z.$.S g j j g j j g 6 g g 6 g g g 0 & @ > : 1 g j j 3 1 : 2 l Q 8.r...! O.@.! c O.Z.G.G.G.G.G.G.G.G.L.I.L.L.L.L.L.D.",
"Q.R.I.U.U.L.L.L.C.y.u.M.x.Q 4 1 5 3 3 6 3 1 1 1 1 5 3 g g h q 9 2 3 3 g g g j b j b g k ! } ) S G G S ! z.L.Y.Q.Q.L.L.G.G.L.G.L.L.G.G.L.L.G.",
"T.I.I.U.U.L.L.I.I.G.A.M.( 4 : : 1 1 5 1 :     ; : 5 6 j j g h 4 0 7 g g g g j b N N b b N N N b b N B $.C.L.L.Q.R.U.L.L.L.L.G.G.L.L.L.L.I.L.",
"~.Q.I.I.I.L.L.U.U.I.M...7 1 1 1 1 5 5 :     . . : 3 j N N j g g h h 6 6 g g g j j j j N N N V N N N ` z.G.L.G.G.Y.R.L.L.L.L.L.L.U.U.L.L.U.I.",
"^.!.I.L.L.L.L.U.U.L.u.M 5 g 6 5 3 g g 2 ; > 2 2 2 g b V b g g g g g 5 1 3 g g g 6 6 h k B B B N B Z  .M.L.G.G.G.Y.Y.L.L.L.L.L.I.L.L.L.L.L.U.",
"I.G.G.L.I.L.L.U.I.L.z.G b N b b b N b w q k n j b N N b j g g g g g 5 : 5 6 6 3 5 1 0 W ..o.] G ] o.z.Z.L.L.L.G.L.L.I.I.I.L.L.I.L.L.L.L.L.U.",
"I.L.L.L.L.L.L.L.L.L.C.h.` B b b n l z z n V V V N N b j g g g g g g 6 : 1 2 : : ; : : 2 I X.r.z.m.M.Z.C.A.G.G.G.T.T.I.I.I.L.L.I.L.L.L.L.L.I.",
"I.I.L.L.L.L.L.L.A.M.z.O.D 4 3 4 q y q h V V N j 3 3 3 g g g g g j b j 6 6 2 : : 1 5 3 5 7 l z W Q Q Q ( u.m.x.A.R.E.I.L.L.L.U.U.I.L.I.I.L.L.",
"G.G.G.G.G.L.R.!.A.%.! x h 3 7 h l x n N V V j 3 5 1 5 6 g g g g j b V b g 3 3 3 6 g v x h h 4 3 2 w 0 0 K I Q x.L.I.G.G.L.L.U.U.L.L.L.I.L.L.",
"A.A.L.L.G.G.A.V.h.) B b j j b b b N V V V b g 3 5 5 5 6 g 6 6 6 g j N V j 6 3 6 g x @.%.o.~ z q y T ^ I P I Q x.G.L.G.G.L.L.L.L.L.L.L.L.L.L.",
"A.A.L.L.G.B.g.{ C V N N N N N N j j j j j g g 3 5 5 5 3 3 8 2 6 g g j N N j 6 g g x @.y.@...^ <.4.e.t.t.k.x.x.M.G.G.G.G.G.L.L.L.L.G.D.D.D.L.",
"G.G.L.L.L.m.{ b b B B B B S D h 5 1 1 1 1 5 3 5 1 1 1 : > r 0 g g g g j N N N b j j k k k v ! r.t.@.o.l.C.L.L.L.G.G.G.G.G.L.R.Q.L.A.Z.Z.D.A.",
"R.L.G.G.L.A.l.~ [ o.@.O.O.9.r.R 5 1 1 : : : : : : 1 : : 1 4 g g g g g g g j N V V N j j j j k D S k j G y.A.G.D.D.G.G.G.G.L.Q.~.T.G.A.G.G.G.",
"R.T.L.G.G.G.G.C.Z.A.A.M.u...W h 3 5 1 1 5 5 1 1 3 6 6 3 6 g g g g g g g g g j b b b N N V N b j j g g k +.C.G.D.D.L.L.P.L.G.L.L.L.L.G.G.L.L.",
"L.L.L.L.L.L.L.L.L.L.A.y.M 7 3 6 6 6 6 6 g 6 1 1 6 j j 6 2 2 5 6 g g g g g g g g g 6 g b N N b b F } o.@.z.A.G.A.A.G.L.L.L.G.L.G.L.G.G.G.T.~.",
"L.I.L.L.L.L.L.L.L.M.@.M 5 : 3 j j j j j j j g g b b j 2 9 @ , 2 3 6 6 g g g g g g 6 g j j j 6 h } y.M.C.A.G.G.G.G.G.G.L.L.L.L.L.G.G.G.G.I.Q.",
"L.L.L.G.G.G.G.G.M.O.l 5 : 5 j N N N N N N N b b b j g 8 * $ # t 9 0 3 3 6 g g g g g g 6 6 3 : 2 z Q X.8.O.t.M.G.G.L.L.L.L.L.L.L.G.G.G.G.G.G.",
"G.G.G.G.G.G.L.A.r.M 3 3 6 b V V V V V V N N b j g g 6 q - - = p - t 2 5 5 3 3 6 6 6 6 g 4 1 ;     ; 2 2 0 ^ x.G.L.L.L.L.L.G.L.L.G.G.D.G.L.D.",
"A.A.L.L.L.L.L.L.9.m j b N V V V V N b b g g 6 3 3 3 5 9 p s a s s p u 2 5 5 5 5 3 3 5 l z 0 > ; ; ; 2 2 z 9.Z.L.L.G.G.L.L.G.G.L.L.G.G.L.L.L.",
"D.D.L.L.L.G.G.G.M. .C A A Z A A C n 7 w 7 5 5 : : : ; r f &.s s s s p 9 2 5 5 5 5 5 5 l Q X.( K P P X.8.x.D.L.L.L.L.L.L.U.L.L.U.U.L.G.G.G.G.",
"L.G.G.L.L.G.L.L.G.M.l.l.h.| f.h.l.r.8.t.8.Q K 2   ; > i :.:.&.s s s a t > : 5 5 5 5 5 1 4 Q t.x.M.M.C.D.Y.Y.L.L.L.L.L.L.I.L.L.L.P.L.G.D.L.L.",
"Q.T.G.G.G.G.L.L.L.G.G.G.C.N.C.A.D.A.A.A.Z.m.9.Q P I U &.>.>.;.&.s s s d J 4 1 5 5 5 5 1 1 2 Q M.L.L.G.L.L.I.I.U.L.L.L.L.L.L.L.L.U.L.A.A.L.L.",
"T.L.G.G.G.G.L.L.L.G.G.G.G.G.G.L.L.L.I.I.R.T.D.M.x.i.1.:.>.>.>.;.f p s &.7.X.~ ~ Q W W ~ Q Q 8.Z.L.G.G.I.T.T.I.I.L.L.L.L.L.L.L.L.I.L.A.D.L.L.",
"G.G.G.G.G.G.G.G.G.A.Z.Z.A.A.L.L.L.L.L.I.Q.Q.E.U.A.p.1.>.>.>.,.:.d * p d w.M.M.m.x.z.x.x.x.M.Z.G.G.G.G.T.E.E.I.L.L.L.U.U.I.I.I.L.L.G.D.D.G.G.",
"G.G.G.G.G.G.G.G.G.A.Z.Z.A.A.L.L.G.G.G.L.R.R.I.I.s.6.:.>.>.:.:.:.d * * - 5.Z.I.A.A.A.A.A.A.D.L.G.G.G.L.T.T.I.G.G.L.L.U.U.L.L.I.L.L.G.G.G.G.G.",
"Y.L.L.L.G.L.G.G.A.G.D.L.L.L.L.G.G.G.G.G.L.L.I.G.s.q.6.6.6.2.3.2.-.*.=.-.q.Z.G.A.A.D.G.L.G.A.G.G.G.L.G.G.L.L.G.L.L.L.I.L.L.L.L.L.L.G.G.A.D.D.",
"^.Q.L.L.L.G.D.D.G.A.G.L.L.G.G.A.G.L.L.L.L.L.I.I.A.Z.Z.Z.Z.Z.Z.Z.a.a.b.s.Z.A.G.G.A.D.L.L.G.A.G.L.L.L.L.L.L.G.G.G.L.L.L.G.L.I.I.G.L.L.D.A.D.G."
};
