/* XPM */
static char *_2bbb675524a4d48f9a6bd806be3b4c8jC0RfKeCJUsBDvKE[] = {
/* columns rows colors chars-per-pixel */
"70 70 39 1 ",
"  c #5F482F",
". c #62492F",
"X c #654C30",
"o c #694E31",
"O c #6D5133",
"+ c #735534",
"@ c #785733",
"# c #765937",
"$ c #7C5A34",
"% c #7E5D37",
"& c #775938",
"* c #775A38",
"= c #795B38",
"- c #7B5D39",
"; c #7C5E39",
": c #7E5F3B",
"> c #7F603A",
", c #805B34",
"< c #835E35",
"1 c #845E35",
"2 c #805F38",
"3 c #856037",
"4 c #886237",
"5 c #83613A",
"6 c #876339",
"7 c #84623B",
"8 c #87643B",
"9 c #8A6338",
"0 c #8B6539",
"q c #8C6539",
"w c #8A653C",
"e c #8C673D",
"r c #8E683C",
"t c #926A3B",
"y c #936B3D",
"u c #956B3D",
"i c #966D3D",
"p c #996F3F",
"a c #9A703F",
/* pixels */
"<<;;<<<<;O....X$<;;<<;O.#1<3pi;;;;<<<<<oX$@...+<+.#-oX-;;+.O;;;O.@<<<;",
"<%++<<22<&+++++%<<<<<;O.o+$106+OOO+++&;#+<%+++&;OX#;++-;;=+&<<%OXO+<<;",
";-X.,<;;<<;;;;;;;<<<<;O...@<;#X......+;<<<<;;;;;O.#;;;;;;;;;<<<O. X$<;",
";-++<3w6<<;;;222<<<<;;#OOO&2;=+OX..oO&2<<<<<;;;;#O=;;-+#;5w6<<<#OO+<%+",
";;<<<9pt<<<<<<<<<<<;;;;;;;;;;;;#X..+;<<<<<<<<<<;;;;;;=Xo<0pt<<<;;<<<@.",
";;<1<4tq<<<<<<<@&<2;=#=;&#;;;;2&OOO#;<<<<<<<306;;;;;;=XX+<tq<<<2;<<<&O",
";;<<<<11<<;;;<$oo-;;+X+;OX&<<<1<;%<<<<<;;<<;8pe;;;;;;=X..O<1<<<<<<<;;<",
";;<<<<<%&%;;;<$OO-;;#o+;O.+$<<<<;<<<<<<&#&$;6u0;;;=&;-Ooo+<<<<<<<<<661",
"$1<<<<<+X+<<<;;--;;;;-;-O..o=2<<<<<%;;-OXXO<132;;;OX#;-=$%;;;;;;;<3iy3",
"@$<<<<1+X+<<<;;;;;;;;=-;OXXo=;<<<<<%=--o..o@%<<;;-Oo&;;;<<;-===;;<3yy1",
"oo$1<<<<$<1<<<<<<;;<#X+;-&==;;;;<<;+X#-X...X+<<;;;==;;<<<<;+XXo&<<155<",
"oo@<%<<<<<<<<<<<%;;<+X+;;;;;;;;;<<;OX#-oXXXXO<<;;;;;--<<<<;+...+<<<;;<",
"$@Ooo+<<;+o#;OooO%<<%#-;;;;;;;;;<<<%#-;=&#&#=;;;;;;-OO%<<<;+...XooO%<<",
"1%o..O<<;OX+-o..o$<<<;;;;;;;;;;;<<<2;;;;;;;;;;;;;;;=o.$<<<;+X.....X$<<",
"3<#++#;;;&+=;#+X.O+;#O#<<<0r5<<&O+<<<<<<<<&O+<<<;;;-o.$<<<<$+#++++#;<<",
"4<;;;;;;;;;;;;=X..O-+.+<<3up3<<@.O<<<<<<<1&.O<<<;;;-o.$<<<<<<2;;;;;;;<",
"3<<%++;;<<;;;;-+++#;&+++$10q3<2#.o+&<<1qq3@.X+@<;;;-o.O++#%<<9w6<<<<<<",
"<<1$Xo-;<<<;;;;;;<<;;;O.+<<<<<;#X..+<<3ip3@...+<2;;-o....O;;<ta0<<<<<<",
";<2&XX+++$<<;;;;<<<;;;#O&2<<<<<&+OO&<<1qe5$+O+@<2;;-+OOOO+;;<0r6<<<<%+",
";;;&X....+<<<<<<<<<;;;;-;;;;<<<<<%-%<<<;;;;<<<<<2;;;;---;;;;;;;<<;;;#X",
";;;&Ooooo#<<<&@%<2;;;;;;;;;;<<<<<<;<<<<;;;;<<<<<<;;;;;22;;;;;;;<<2;;&O",
";;<<-----;;;-oo=;;;;;;;;;;;;;;;;<<<<<<<<<<<<<<<1<<<<<<<<<<<<<<<<<<<<<-",
";;$$;;;;;55>-Oo=;;;;;;;;;;;;;;;;<<<<<%$<<<<<<<<<<<%$$$<<<<<<<<<$$<<<<;",
"=-oO%<<2;wi8;%$<<<<<<;;;;;;;;;<<;;;;;Oo$11<<<;;;;;OXXo$<<<;;;;;Oo$1<<;",
"=-XX@<<<;wi8;<<<<<<<<;;;;;-=;;<<;;5;=o.+%$%<<;;;;-O..X$<<<;;;-=o.+%<<;",
";-X.o+<<<343<<<<<1<;;;;;;-OO$<<<;8y%XX.Xoo+<<<;;;-O..X&;<<;;;+XX.XO=;;",
";-o..o$<<<<<<<<<<<<;;;;-;-o.$1<<;wp$.X....o%<<<;;;OX.X=;<<;;-O.XX.o=;;",
";;#+XXO#;<<<<++%<<<;;;+O&-o.$<;;<58%@@+X..o%<<<<<<&+XX=;;;;#OO##@@&;;;",
";;;=XX.O;<<<<oX$1<<;;;O.+-o.$<;;<<;2<1<o..o-;<<<<<2-oX=;;;;+.+;<11<;;;",
";;;-+++#;;;<<oXO+<<;;;&+&-o.O+-;;;;<<<<@+++%<<<<<<<%#+%<<<<$+&<<<<;;;;",
";;;;;;;;;;;<<o..o%<;;;2<;-o..o-;;;;<<<<<<<<<<<<<<<<<<<<<<<<<<<<<<;;;;;",
";;;-+#;;;#+$<+OO+%;;;;2<;-+OO+-;;;;;<<<<<<<<<<$+$<<<<<%<<<<<<9q3<<;;;;",
";;;&XO-;;O.+<;;;;;;;;;2<;;;;;;;;;;;;;<<;;<<<<<+.+<;;;;;;<11<<tp0<<<;;;",
";;;&Xo;;;#O&<;;;;66;;;<<<;2;;;;;#&;;;&@-;<<<<<@O@<<;;;;;&@+$<qt4<@&;;;",
";;;&XO<1<;-;;;;;5py;;;<111<<111&.O;;;OX&;;;<111<11<<;;;#X..+1111<oX=;;",
";;;&Xo@$<<;;;;;;5ye;;;$@@$<<@&<&o+;;;OO=;;;<<@@@@@<<;;;&OX.O@$<<<OO-;;",
";;;&X..+<<;;;;;<<31<<<+XXo&<oo-;$%;;;---;;;<@XXXXX@1<<<<<+...+<<<<%;;;",
";;;=oXX+<;;==;;<<<<<<<+...@<oO-21%===;;55;;<@XXXXX&<<<<<1&oXX+<<<1<;;;",
";;;;===-;;;OX$<<<<<;;;O...@<$$<<1+XXX&3yy5;<<=====;;;;;;<<===;;<<<<;;;",
";;>;;;;;;;;OX@<<<<<;;;+XXX$3<<<<<+X..+3yi5;<<;;;;;;;--;;<<;;;;;<<<<--;",
";>yy3<<<<<<&#OooO<<;;;=#&=qy5;<<;-#O.+146;;;;;;;;;;-OO%<<<;;;;;<<2-OO-",
";5yu3<<<<<<2;o..o%<;;;;;;5yi5;<<;;;O.+<<<;;;;;;;;;;-oX$1<<;;;;;<<;=Xo-",
";;#&<<<<<<<<<&###;;;;;;<<<90<<<<;;;O.oO$<;;;;;;;;;;;&@<<;&O#<<<<<;-#&-",
";=X.%<<<<<<<<1<;;;;;;;2<<<<<<<<<;;;O..X&<;;;;;;;;;;;<1<<;+.O<<<<<;;;;;",
";-X.O++$t6<<<<%++-;;;;2<<<<<<<<<<;;#+++%<;;;;;#O#;;;<<<;;+Xo+&<<<<;;;;",
";-X....&aw;<<<$Xo-;;;;<<;;<<<<<<<<;;;;;<<;;;;;+.+;;;<<;;;+...+1<<<<;;;",
";-XXOOO=r6;;<<%++%;;;;&+++$<<$+@<<;#+++%2;;;;;&+#;;;<<;-+OOo.o+$<<<;;;",
";-XX=;;;;;;;;;;<<<<;;;O..X@<<&.O<<;O.XX#;;;<<<<<%;;;<<;&XO-+...#;;;<<;",
";-OO;-#&;;;;2;2<<<<;;;OX..+&<$O+<<;+OOO=;;%<<<<<2;;;<<2&O+;#OOO#;;;<<;",
";;;;;#XO<<<<1111<<<;;;OX...X$<;;<<;;-;;;;<<1<;;<;;;;<<<<<<;;;;;;;;;<<;",
";;;;;#.O&@&<<<<$$<<;;;+ooooO$<;;<<;56;;;;&@@&;;<2;;;<<<<46;;;;;=##&<<;",
"=;;;;#.....@<;=oo-;;;;-====-<<<<<<;wi6;;=o..O;;<;;;;;;;6it12;;;OXXo%<;",
"=;;;;#oXXXX@<;=oO-;;;;-=;;;;<<<<<;;wi6;;=oXXO;<<2;;;==-5it1<;;-O..X$<;",
";;;;;-==&==;;;;==;;;;;+o#;<<<<;;;;;542;;;=&&$<<<2;;-OO=2631<;;-O..X$<;",
";;;;;;;;;;;;;;;;;;;;;;+X+;<<<<;;;;;<<;;;;;;1<<<<;;;-oX=;<<<<;;;OXXo$<;",
";;;;;;;;;;;;;;;;;;;;;;=&-;;;;;;;;;<<<<<<<<<2;;;;;;;;&#;;<<;;;;;=###;;;",
";-;;;;-;;;;;;;;;;;;;;;;;;;;-;;;;;;<<<<<<<<%-;;;;;;;;;;;;<<;;;;;;;;;;;;",
"+O$<<&O#<;;;;+O$;;;;;;;;;;+O%$O+;;<<<<;;%+OO+<<<;;;;;;2<<&O#<<<<%+O%<<",
"XX$<1@.O<2;;-XX$<;;;;;;;;-oX$&.O-;<<<;;;=X..O<<<;;;;;;<<<@.+<<<<<oX$<<",
"XX++<<%%<2;#OXX$<;;;;;;;#OXX$%+#;;<<2;;;=XXO++&<2;;;;2<<<$+&<<2<%oX++<",
"X..o$0pr;2<O..X$<;;;;;;;O..X$1<<;;<2;;;;=XX-+.+<2;;;<<1<<<<<;;;;-o..o%",
"+OO+<3r0;<<O..X$%##;;;;;+OOO%<<3w6<;;;;;-O+;&O#<;;;2<%@++++#+=;;-+OO+%",
";;%<<<;2<<<O..X$$XO-;;;;;---;;<9pr;;;;;;;-;<<<%;;;<<;=X......+;;;;---;",
";;<<<<;;<<<+ooO$$OO;;;;;;;;;;;<4u0;;;=###;2<<<665;$&%-Ooooooo#;;;;;;;#",
"=;<<;;;;<<<<<<%;;--;;;;;<<<<<<<132;;;OXXo$<<<<qiw-OX&<;-=----;;;;<<<&X",
"&;<<=-;<<<<<<<<;;;;;;;;;<<%$<<<<<%=-;OX.X@%<<<qiw;Oo&<;;55;;;;;-=$$<$o",
"<<1$oO<<<<;<<;;;;;;;;;;<2;Oo=;<<1+X+;-#X.XO<<;232;-=;;<6iy<<<<<+XXO%<=",
"<<<@Xo$<<<;<<;;--;;;;;<<%&oX=;<<<+.+;;;O..O<<;;<%;;;;;%3it1<%<<O..X$<;",
"<<OX..o+<<;<<;-OO-;;;<<<+o+$<<<<;%@$<<<$@&$<<;;<;;;;;-O+56<@o@<O..X$<<",
"<$o....O<<;<<;=XX-;;;<<<O.@1<<<<;;111<<1111<<;;<;;;;;=XX=;<+.+<O..o$<<"
};
